<svg width="300" height="300" xmlns="http://www.w3.org/2000/svg"><g fill-rule="nonzero" fill="none"><path fill="#EFDA5B" d="M0 0h300v300H0z"/><g fill="#323330"><path d="M164.5 256.4c3 5.4 5.8 10 12.5 10 6.4 0 10.4-2.5 10.4-12.2v-65.8h19.5v66c0 20.1-11.9 29.2-29.1 29.2-15.6 0-24.6-8-29.2-17.7l15.9-9.5zM232.8 254.6c4.1 6.8 9.5 11.8 19.1 11.8 8 0 13.2-4 13.2-9.5 0-6.7-5.3-9-14.2-13l-4.8-2c-14-6-23.3-13.5-23.3-29.3 0-14.5 11-25.6 28.4-25.6 12.4 0 21.3 4.3 27.7 15.5l-15.2 9.7c-3.3-6-7-8.3-12.5-8.3-5.7 0-9.3 3.6-9.3 8.3 0 5.8 3.6 8.2 12 11.8l4.8 2c16.6 7.1 25.9 14.4 25.9 30.6 0 17.5-13.8 27-32.3 27-18 0-29.7-8.6-35.4-19.8l15.9-9.2zM279.4 168.3H260V128h-18.3v40.2H222v-96h19.5v40.2h18.3V72.3h19.5zM206.9 168.3h-19.5V128H169v40.2h-19.5v-96H169v40.2h18.4V72.3h19.5z"/></g></g></svg>